<svg width="155" height="155" viewBox="0 0 155 155" fill="none" xmlns="http://www.w3.org/2000/svg">
<path d="M6 100.067C6 108.802 9.47605 117.178 15.6635 123.354C21.8509 129.53 30.2428 133 38.9931 133H121.476C127.912 133.007 134.147 130.76 139.093 126.65C144.04 122.541 147.386 116.829 148.548 110.511C149.71 104.192 148.614 97.6666 145.452 92.0714C142.29 86.4761 137.261 82.1656 131.242 79.8906C132.602 76.0282 132.854 71.8631 131.968 67.8656C131.082 63.8681 129.094 60.1975 126.228 57.2684C123.362 54.3393 119.733 52.2685 115.75 51.2897C111.767 50.311 107.59 50.4633 103.689 51.7296C101.166 42.0695 94.9755 33.7688 86.4281 28.5854C77.8808 23.4019 67.6478 21.7426 57.8961 23.959C48.1444 26.1753 39.6399 32.0932 34.1833 40.4594C28.7268 48.8257 26.7468 58.9833 28.6626 68.7814C22.0682 70.9538 16.3283 75.1469 12.2595 80.7639C8.19064 86.381 6.00026 93.1358 6 100.067Z" stroke="black" stroke-width="12" stroke-linecap="round" stroke-linejoin="round"/>
<path d="M49.4318 105H40.9091L50.5114 75.9091H61.3068L70.9091 105H62.3864L56.0227 83.9205H55.7955L49.4318 105ZM47.8409 93.5227H63.8636V99.4318H47.8409V93.5227ZM73.7109 105V75.9091H86.2678C88.4268 75.9091 90.3161 76.3352 91.9354 77.1875C93.5547 78.0398 94.8142 79.2377 95.7138 80.7812C96.6134 82.3248 97.0632 84.1288 97.0632 86.1932C97.0632 88.2765 96.5992 90.0805 95.6712 91.6051C94.7526 93.1297 93.46 94.304 91.7933 95.1278C90.1361 95.9517 88.1996 96.3636 85.9837 96.3636H78.4837V90.2273H84.3928C85.3208 90.2273 86.1115 90.0663 86.7649 89.7443C87.4278 89.4129 87.9344 88.9441 88.2848 88.3381C88.6447 87.732 88.8246 87.017 88.8246 86.1932C88.8246 85.3598 88.6447 84.6496 88.2848 84.0625C87.9344 83.4659 87.4278 83.0114 86.7649 82.6989C86.1115 82.3769 85.3208 82.2159 84.3928 82.2159H81.6087V105H73.7109ZM107.859 75.9091V105H99.9609V75.9091H107.859Z" fill="black"/>
</svg>
