<svg width="155" height="155" viewBox="0 0 155 155" fill="none" xmlns="http://www.w3.org/2000/svg">
<path d="M44.4133 65.6862C44.4133 67.5383 44.6135 69.04 44.9639 70.1412C45.3643 71.2424 45.8649 72.4437 46.5657 73.7452C46.8159 74.1456 46.916 74.5461 46.916 74.8965C46.916 75.397 46.6157 75.8976 45.965 76.3981L42.8115 78.5004C42.361 78.8008 41.9105 78.9509 41.5101 78.9509C41.0095 78.9509 40.5089 78.7007 40.0084 78.2502C39.3076 77.4993 38.7069 76.6985 38.2064 75.8976C37.7058 75.0466 37.2053 74.0956 36.6547 72.9443C32.7503 77.5494 27.8449 79.8519 21.9384 79.8519C17.7337 79.8519 14.38 78.6506 11.9273 76.248C9.47453 73.8453 8.22314 70.6417 8.22314 66.6373C8.22314 62.3826 9.72481 58.9287 12.7782 56.3259C15.8316 53.723 19.8861 52.4215 25.0418 52.4215C26.7437 52.4215 28.4956 52.5717 30.3477 52.822C32.1997 53.0723 34.1018 53.4727 36.1041 53.9232V50.2691C36.1041 46.4649 35.3032 43.812 33.7514 42.2603C32.1497 40.7085 29.4467 39.9577 25.5924 39.9577C23.8405 39.9577 22.0385 40.1579 20.1864 40.6084C18.3344 41.0589 16.5324 41.6095 14.7804 42.3103C13.9795 42.6607 13.3789 42.8609 13.0285 42.961C12.6781 43.0612 12.4278 43.1112 12.2276 43.1112C11.5268 43.1112 11.1764 42.6107 11.1764 41.5595V39.1068C11.1764 38.3059 11.2765 37.7052 11.5268 37.3548C11.7771 37.0044 12.2276 36.6541 12.9284 36.3037C14.6803 35.4027 16.7826 34.6518 19.2354 34.0512C21.6881 33.4004 24.291 33.1001 27.044 33.1001C33.0006 33.1001 37.3554 34.4516 40.1586 37.1546C42.9116 39.8576 44.3132 43.9622 44.3132 49.4683V65.6862H44.4133ZM24.0907 73.2947C25.7426 73.2947 27.4445 72.9943 29.2465 72.3937C31.0485 71.793 32.6502 70.6918 34.0017 69.1901C34.8026 68.2391 35.4033 67.1879 35.7036 65.9866C36.0039 64.7852 36.2042 63.3336 36.2042 61.6317V59.5294C34.7526 59.179 33.2008 58.8787 31.5991 58.6785C29.9973 58.4782 28.4456 58.3781 26.8938 58.3781C23.5401 58.3781 21.0874 59.0289 19.4356 60.3804C17.7837 61.7319 16.9829 63.634 16.9829 66.1367C16.9829 68.4894 17.5835 70.2413 18.8349 71.4426C20.0362 72.694 21.7882 73.2947 24.0907 73.2947ZM64.2853 78.7007C63.3843 78.7007 62.7836 78.5505 62.3832 78.2001C61.9828 77.8998 61.6324 77.199 61.332 76.248L49.569 37.5551C49.2687 36.5539 49.1185 35.9032 49.1185 35.5528C49.1185 34.7519 49.5189 34.3014 50.3198 34.3014H55.2253C56.1763 34.3014 56.827 34.4516 57.1774 34.802C57.5779 35.1023 57.8782 35.8031 58.1785 36.7542L66.5879 69.8909L74.3965 36.7542C74.6468 35.7531 74.9471 35.1023 75.3476 34.802C75.748 34.5017 76.4488 34.3014 77.3498 34.3014H81.3542C82.3053 34.3014 82.956 34.4516 83.3564 34.802C83.7569 35.1023 84.1073 35.8031 84.3075 36.7542L92.2163 70.2913L100.876 36.7542C101.176 35.7531 101.527 35.1023 101.877 34.802C102.277 34.5017 102.928 34.3014 103.829 34.3014H108.484C109.285 34.3014 109.736 34.7019 109.736 35.5528C109.736 35.8031 109.686 36.0534 109.636 36.3537C109.586 36.6541 109.485 37.0545 109.285 37.6051L97.2218 76.298C96.9215 77.2991 96.5711 77.9498 96.1707 78.2502C95.7702 78.5505 95.1195 78.7507 94.2685 78.7507H89.9638C89.0127 78.7507 88.362 78.6006 87.9615 78.2502C87.5611 77.8998 87.2107 77.2491 87.0105 76.248L79.2519 43.9622L71.5434 76.1979C71.2931 77.199 70.9927 77.8497 70.5923 78.2001C70.1919 78.5505 69.4911 78.7007 68.5901 78.7007H64.2853ZM128.607 80.0522C126.004 80.0522 123.401 79.7518 120.898 79.1512C118.395 78.5505 116.443 77.8998 115.142 77.149C114.341 76.6985 113.79 76.1979 113.59 75.7474C113.39 75.2969 113.29 74.7963 113.29 74.3458V71.793C113.29 70.7418 113.69 70.2413 114.441 70.2413C114.741 70.2413 115.042 70.2913 115.342 70.3915C115.642 70.4916 116.093 70.6918 116.593 70.892C118.295 71.6428 120.147 72.2435 122.099 72.644C124.102 73.0444 126.054 73.2446 128.056 73.2446C131.209 73.2446 133.662 72.694 135.364 71.5928C137.066 70.4916 137.967 68.8898 137.967 66.8375C137.967 65.436 137.516 64.2847 136.615 63.3336C135.714 62.3826 134.013 61.5316 131.56 60.7307L124.302 58.4782C120.648 57.327 117.945 55.6251 116.293 53.3726C114.641 51.1701 113.79 48.7174 113.79 46.1145C113.79 44.0122 114.241 42.1602 115.142 40.5584C116.043 38.9566 117.244 37.5551 118.746 36.4538C120.247 35.3026 121.949 34.4516 123.951 33.8509C125.954 33.2503 128.056 33 130.258 33C131.36 33 132.511 33.0501 133.612 33.2002C134.763 33.3504 135.815 33.5506 136.866 33.7508C137.867 34.0011 138.818 34.2514 139.719 34.5517C140.62 34.8521 141.321 35.1524 141.821 35.4527C142.522 35.8532 143.023 36.2536 143.323 36.7041C143.623 37.1046 143.773 37.6552 143.773 38.3559V40.7085C143.773 41.7597 143.373 42.3103 142.622 42.3103C142.222 42.3103 141.571 42.1101 140.72 41.7097C137.867 40.4082 134.663 39.7575 131.109 39.7575C128.256 39.7575 126.004 40.208 124.452 41.159C122.9 42.1101 122.099 43.5617 122.099 45.614C122.099 47.0155 122.6 48.2169 123.601 49.1679C124.602 50.119 126.454 51.07 129.107 51.921L136.215 54.1735C139.819 55.3248 142.422 56.9265 143.974 58.9788C145.525 61.0311 146.276 63.3837 146.276 65.9866C146.276 68.139 145.826 70.0911 144.975 71.793C144.074 73.4949 142.872 74.9966 141.321 76.1979C139.769 77.4493 137.917 78.3503 135.765 79.001C133.512 79.7018 131.159 80.0522 128.607 80.0522Z" fill="black"/>
<path fill-rule="evenodd" clip-rule="evenodd" d="M138.067 104.379C121.599 116.543 97.6721 123 77.0993 123C48.2673 123 22.2885 112.338 2.66675 94.6182C1.11503 93.2167 2.51658 91.3146 4.36863 92.4158C25.5922 104.729 51.7712 112.188 78.8512 112.188C97.1215 112.188 117.194 108.384 135.664 100.575C138.417 99.3235 140.77 102.377 138.067 104.379Z" fill="black"/>
<path fill-rule="evenodd" clip-rule="evenodd" d="M144.924 96.5706C142.822 93.8676 131.009 95.2691 125.653 95.9198C124.051 96.12 123.801 94.7185 125.253 93.6673C134.663 87.06 150.13 88.9621 151.932 91.1646C153.734 93.4171 151.432 108.884 142.622 116.292C141.27 117.444 139.969 116.843 140.57 115.341C142.572 110.386 147.027 99.2235 144.924 96.5706Z" fill="black"/>
</svg>
