<svg width="155" height="155" viewBox="0 0 155 155" fill="none" xmlns="http://www.w3.org/2000/svg">
<path d="M122.568 14H31.4317C25.0808 14 20 19.0808 20 25.4318V129.588C20 135.939 25.0808 141.019 31.4317 141.019H122.568C128.919 141.019 134 135.939 134 129.588V25.4318C134 19.0808 128.919 14 122.568 14ZM127.649 129.588C127.649 132.446 125.426 134.669 122.568 134.669H31.4317C28.5738 134.669 26.351 132.446 26.351 129.588V25.4318C26.351 22.5738 28.5738 20.351 31.4317 20.351H122.568C125.426 20.351 127.649 22.5738 127.649 25.4318V129.588ZM48.5794 121.967L62.8691 109.265L48.5794 96.5627V121.967ZM100.022 70.5237C97.4819 67.9833 92.7187 64.8078 84.7799 64.8078C76.2061 64.8078 67.3148 67.0306 60.9638 69.2535V33.0529H48.2618V87.9889L57.1532 83.8607C57.1532 83.8607 71.7605 77.1922 84.4624 77.1922C90.8134 77.1922 92.4011 80.6852 92.4011 83.8607V121.967H105.103V83.8607C105.421 82.9081 105.421 75.922 100.022 70.5237ZM83.1922 53.6936H95.8942C101.61 47.0251 104.468 40.3565 105.421 33.0529H92.7187C91.4485 40.3565 88.273 47.0251 83.1922 53.6936Z" fill="black"/>
</svg>
