<svg width="155" height="155" viewBox="0 0 155 155" fill="none" xmlns="http://www.w3.org/2000/svg">
<g clip-path="url(#clip0_220_278)">
<path d="M21.1409 45.5262C9.79114 61.8323 11.204 83.0466 19.8743 100.372C20.0804 100.788 20.2965 101.196 20.5093 101.605C20.6456 101.864 20.7736 102.13 20.9149 102.386C20.9947 102.539 21.0844 102.688 21.1675 102.835C21.3154 103.11 21.4667 103.373 21.6196 103.642C21.8889 104.117 22.1649 104.589 22.4474 105.061C22.6037 105.32 22.7583 105.579 22.9195 105.839C23.232 106.344 23.5528 106.842 23.8803 107.341C24.0166 107.553 24.1496 107.766 24.2892 107.972C24.7413 108.647 25.2034 109.318 25.6804 109.979C25.6923 109.996 25.7053 110.016 25.7203 110.032C25.7952 110.138 25.8782 110.241 25.9546 110.348C26.3669 110.916 26.7924 111.478 27.2229 112.033C27.3809 112.235 27.5404 112.438 27.7 112.641C28.084 113.123 28.4746 113.601 28.8719 114.08C29.0198 114.259 29.1694 114.438 29.319 114.615C29.8526 115.243 30.3961 115.867 30.9513 116.479C30.9615 116.488 30.9746 116.502 30.9845 116.512C31.0078 116.538 31.0277 116.555 31.0476 116.582C31.5895 117.173 32.1447 117.751 32.7066 118.33C32.8811 118.509 33.059 118.688 33.2385 118.865C33.674 119.303 34.1161 119.735 34.5633 120.164C34.7444 120.337 34.924 120.513 35.1052 120.679C35.7019 121.241 36.3053 121.792 36.9203 122.331C36.9305 122.34 36.9385 122.348 36.9486 122.354C37.0533 122.447 37.1613 122.533 37.2644 122.623C37.8063 123.091 38.3581 123.557 38.9133 124.015C39.1393 124.198 39.3687 124.378 39.5965 124.56C40.0503 124.923 40.509 125.281 40.9711 125.634C41.2155 125.82 41.4598 126.006 41.7058 126.192C42.2161 126.567 42.7298 126.936 43.2484 127.299C43.4378 127.435 43.6207 127.568 43.8102 127.697C43.8633 127.734 43.9116 127.77 43.9647 127.807C44.4568 128.146 44.9604 128.472 45.4625 128.797C45.6786 128.94 45.893 129.09 46.1108 129.229C46.882 129.718 47.665 130.2 48.4561 130.665C48.6706 130.788 48.8883 130.907 49.1044 131.03C49.6862 131.366 50.2713 131.695 50.8647 132.017C51.1855 132.19 51.5146 132.353 51.8387 132.519C52.2576 132.738 52.6732 132.961 53.0987 133.174C53.1951 133.22 53.2949 133.267 53.3896 133.313C53.5608 133.396 53.7337 133.476 53.9049 133.562C54.5648 133.878 55.2297 134.187 55.9013 134.486C56.0443 134.549 56.1822 134.613 56.3235 134.676C57.0931 135.011 57.8693 135.334 58.6523 135.643C58.8401 135.719 59.0296 135.792 59.2191 135.865C59.9438 136.144 60.6786 136.42 61.4166 136.679C61.5097 136.713 61.5995 136.743 61.6926 136.776C62.5021 137.058 63.3199 137.321 64.1427 137.576C64.3388 137.633 64.5366 137.696 64.7344 137.753C65.5722 138.005 66.4 138.308 67.2643 138.467C122.155 148.473 138.099 105.496 138.099 105.496C124.708 122.934 100.938 127.533 78.4167 122.413C77.5639 122.22 76.7362 121.954 75.9034 121.708C75.6922 121.645 75.4845 121.582 75.2767 121.519C74.4639 121.27 73.6576 121.007 72.8565 120.731C72.7468 120.692 72.6355 120.652 72.5241 120.612C71.806 120.359 71.0962 120.093 70.3898 119.821C70.1903 119.741 69.9908 119.665 69.7914 119.585C69.0167 119.279 68.2472 118.96 67.4875 118.628C67.3312 118.561 67.1816 118.492 67.027 118.425C66.3738 118.129 65.7272 117.83 65.0839 117.521C64.8977 117.432 64.7115 117.345 64.5221 117.252C64.0169 117.006 63.5171 116.743 63.0187 116.487C62.6851 116.312 62.3461 116.146 62.0152 115.962C61.4065 115.636 60.8087 115.298 60.2136 114.952C60.0121 114.839 59.8078 114.73 59.6049 114.613C58.8138 114.147 58.0322 113.666 57.2587 113.177C57.0449 113.041 56.8366 112.895 56.6255 112.755C56.0645 112.393 55.5062 112.024 54.9561 111.646C54.7736 111.522 54.598 111.39 54.4182 111.267C53.8872 110.892 53.3615 110.512 52.84 110.127C52.6031 109.951 52.3702 109.774 52.1401 109.599C51.6621 109.232 51.1869 108.864 50.7158 108.485C50.503 108.316 50.2902 108.146 50.0808 107.977C49.4824 107.485 48.8906 106.99 48.3072 106.481C48.2457 106.428 48.1792 106.375 48.1127 106.319C47.481 105.764 46.861 105.195 46.2477 104.624C46.0698 104.454 45.897 104.288 45.7224 104.119C45.2686 103.687 44.8215 103.251 44.3827 102.806C44.2065 102.63 44.0303 102.457 43.8574 102.281C43.2989 101.71 42.7503 101.131 42.2134 100.543C42.1869 100.513 42.1586 100.487 42.132 100.457C41.5636 99.8354 41.0084 99.2007 40.4648 98.5594C40.3169 98.3833 40.1739 98.2139 40.0276 98.0411C39.622 97.5526 39.2198 97.0574 38.8275 96.559C38.6804 96.3793 38.5333 96.1955 38.3876 96.0104C37.9151 95.3979 37.4535 94.7868 37.0014 94.1661C24.4979 77.1182 20.006 53.605 29.9996 34.2949" fill="black"/>
<path d="M56.3729 31.7882C48.1648 43.5949 48.6102 59.3997 55.0131 71.8865C56.087 73.9801 57.2937 76.0104 58.6434 77.9444C59.8735 79.7056 61.2365 81.8025 62.8688 83.2181C63.4606 83.8694 64.0789 84.5041 64.7105 85.1288C64.87 85.2916 65.033 85.4478 65.1959 85.6073C65.8092 86.2021 66.4326 86.787 67.0775 87.3553C67.104 87.3751 67.1274 87.4017 67.1539 87.4218C67.1607 87.4286 67.1675 87.4313 67.1721 87.4388C67.8852 88.0636 68.6215 88.665 69.3696 89.2565C69.5359 89.3826 69.7004 89.5157 69.8683 89.6453C70.618 90.2202 71.3827 90.7851 72.1671 91.3234C72.1905 91.3404 72.2104 91.3566 72.2337 91.3732C72.5794 91.6124 72.9318 91.8351 73.2826 92.0644C73.4504 92.1741 73.61 92.2903 73.7796 92.3934C74.3398 92.7522 74.9065 93.1012 75.4833 93.4368C75.5649 93.4866 75.6445 93.5299 75.7244 93.5763C76.2214 93.8621 76.725 94.1445 77.2304 94.417C77.4066 94.5167 77.5861 94.6031 77.7656 94.6962C78.1147 94.8789 78.4638 95.065 78.8195 95.2411C78.8726 95.2677 78.9276 95.2909 78.979 95.3144C79.702 95.6699 80.4318 96.0122 81.1765 96.3378C81.336 96.4077 81.5006 96.4707 81.6618 96.5372C82.2569 96.7898 82.8587 97.0357 83.4636 97.2683C83.7196 97.3647 83.9789 97.4577 84.2349 97.5507C84.7835 97.7534 85.3337 97.9395 85.8888 98.1256C86.1398 98.2054 86.3859 98.2885 86.6369 98.3649C87.4264 98.6108 88.2059 98.9198 89.0288 99.0561C131.409 106.074 141.193 73.459 141.193 73.459C132.373 86.1563 115.293 92.2138 97.0669 87.4853C96.2574 87.2726 95.4596 87.04 94.6667 86.7907C94.424 86.7176 94.1863 86.638 93.9453 86.5582C93.3818 86.3754 92.8216 86.1826 92.2664 85.9799C92.0121 85.8868 91.7578 85.7939 91.5084 85.6975C90.9001 85.4649 90.2983 85.2223 89.7016 84.9697C89.5387 84.8999 89.3741 84.8369 89.2145 84.7637C88.4665 84.438 87.7301 84.0958 87.0038 83.7369C86.6298 83.5541 86.2624 83.3614 85.8951 83.172C85.6823 83.0624 85.4679 82.9527 85.2551 82.843C84.7831 82.5871 84.3143 82.3213 83.8522 82.0521C83.7425 81.989 83.6278 81.9291 83.5164 81.8627C82.9429 81.5271 82.3778 81.1815 81.8175 80.8259C81.6447 80.7162 81.4784 80.5966 81.3056 80.4837C80.9365 80.2444 80.5675 80.0018 80.2052 79.7559C79.4239 79.2176 78.6643 78.6527 77.9147 78.0811C77.7418 77.9448 77.5689 77.8119 77.3994 77.6756C69.4212 71.3791 63.0974 62.7756 60.0908 53.0191C56.9398 42.9006 57.6193 31.5422 63.0784 22.3247" fill="black"/>
<path d="M86.005 21.5244C81.1662 28.6423 80.6909 37.4821 84.0486 45.3439C87.5891 53.688 94.8448 60.2344 103.313 63.3377C103.662 63.4675 104.011 63.5836 104.365 63.7033C104.519 63.7498 104.672 63.803 104.829 63.8494C105.327 64.0056 105.823 64.1884 106.338 64.2847C129.739 68.804 136.086 52.2819 137.775 49.8502C132.215 57.852 122.872 59.7727 111.407 56.9914C110.502 56.7709 109.507 56.4442 108.634 56.1352C107.514 55.7364 106.411 55.2818 105.34 54.7673C103.304 53.79 101.364 52.6031 99.5647 51.2447C89.3057 43.4646 82.9329 28.6217 89.627 16.5337" fill="black"/>
</g>
<defs>
<clipPath id="clip0_220_278">
<rect width="128" height="147" fill="white" transform="translate(13 4)"/>
</clipPath>
</defs>
</svg>
