<svg width="155" height="155" viewBox="0 0 155 155" fill="none" xmlns="http://www.w3.org/2000/svg">
<path fill-rule="evenodd" clip-rule="evenodd" d="M134.349 113.323C127.005 113.12 121.308 113.868 116.533 115.866C115.158 116.415 112.952 116.415 112.771 118.136C113.506 118.858 113.594 120.039 114.238 121.04C115.339 122.856 117.27 125.303 119.013 126.572L124.889 130.748C128.471 132.924 132.511 134.195 136 136.374C138.021 137.645 140.04 139.278 142.061 140.641C143.09 141.367 143.714 142.548 145 143V142.725C144.358 141.912 144.173 140.732 143.532 139.821L140.775 137.191C138.113 133.652 134.806 130.565 131.225 128.026C128.285 126.029 121.86 123.308 120.666 119.952L120.485 119.748C122.502 119.545 124.889 118.839 126.82 118.294C129.944 117.481 132.789 117.66 136 116.844L140.41 115.573V114.759C138.757 113.126 137.564 110.948 135.82 109.406C131.138 105.414 125.993 101.511 120.666 98.2441C117.82 96.4298 114.146 95.2481 111.116 93.7085C110.011 93.1634 108.177 92.8908 107.535 91.9837C105.878 89.9905 104.962 87.3566 103.768 84.9953L96.2394 69.2061C94.5867 65.6671 93.5741 62.1281 91.557 58.8617C82.0976 43.4346 71.8107 34.0888 56.0162 24.922C52.6202 23.0163 48.5799 22.1966 44.2845 21.2L37.3978 20.8339C35.9262 20.1993 34.4587 18.4746 33.1723 17.6569C27.9383 14.3905 14.4387 7.31253 10.5796 16.64C8.09946 22.5383 14.2534 28.3451 16.3425 31.341C17.9067 33.4278 19.9238 35.7871 21.029 38.1464C21.6465 39.6881 21.8523 41.3234 22.4965 42.9566C23.964 46.9492 25.343 51.3973 27.2715 55.1193C28.3006 57.0251 29.3811 59.0244 30.6675 60.7471C31.4023 61.7641 32.6886 62.1993 32.9624 63.8325C31.676 65.6488 31.5875 68.3681 30.8527 70.64C27.5452 80.8949 28.8316 93.5986 33.514 101.148C34.9856 103.416 38.4537 108.409 43.1587 106.502C47.2915 104.868 46.3695 99.6963 47.5632 95.1586C47.8411 94.0705 47.6558 93.3444 48.2054 92.6163V92.8197L51.9718 100.351C54.8183 104.797 59.7786 109.426 63.9094 112.514C66.1116 114.147 67.857 116.962 70.6108 117.959V117.684H70.4297C69.8781 116.871 69.0507 116.504 68.3159 115.87C66.6632 114.237 64.8273 112.239 63.5409 110.425C59.6859 105.344 56.2899 99.7166 53.2582 93.9098C51.7866 91.097 50.5002 88.0115 49.3106 85.1986C48.7549 84.1085 48.7549 82.4732 47.839 81.9322C46.46 83.9254 44.443 85.6542 43.4283 88.1031C41.6829 92.0041 41.5018 96.8142 40.8597 101.805C40.4892 101.897 40.6539 101.805 40.4892 102.009C37.5542 101.285 36.5416 98.2868 35.4405 95.7485C32.6866 89.3051 32.2256 78.9607 34.6131 71.5186C35.2552 69.6129 38.0132 63.623 36.9121 61.8088C36.3563 60.0841 34.5245 59.0875 33.5119 57.7248C32.3182 56 31.0359 53.8237 30.2085 51.918C28.0063 46.8332 26.9051 41.2095 24.5156 36.1268C23.4103 33.7675 21.4839 31.3166 19.9217 29.1403C18.1764 26.6895 16.2519 24.9647 14.873 22.0624C14.414 21.0454 13.7718 19.4305 14.5066 18.3403C14.6877 17.6142 15.0582 17.3234 15.7889 17.1607C16.9826 16.1437 20.3827 17.4332 21.5765 17.9742C24.9725 19.3369 27.819 20.6061 30.6654 22.5098C31.9518 23.4169 33.3308 25.1417 34.9835 25.5973H36.9141C39.8532 26.2319 43.1566 25.8007 45.9084 26.6142C50.776 28.16 55.1826 30.4258 59.1343 32.8786C71.1624 40.4102 81.0829 51.1186 87.7843 63.9159C88.8855 66.0027 89.3445 67.9085 90.3571 70.0868C92.2877 74.5349 94.6752 79.0705 96.5996 83.4292C98.5302 87.6942 100.366 92.0529 103.12 95.5919C104.499 97.4976 110.007 98.4942 112.485 99.4929C114.323 100.306 117.167 101.039 118.824 102.035C121.944 103.941 125.066 106.119 128.003 108.206C129.471 109.292 134.065 111.562 134.339 113.372L134.349 113.323ZM40.7012 34.4651C39.4325 34.454 38.1677 34.6065 36.9388 34.9186V35.122H37.1199C37.8547 36.5742 39.1411 37.5729 40.059 38.8441L42.1728 43.2007L42.3539 42.9973C43.6403 42.0902 44.2845 40.638 44.2845 38.4617C43.7329 37.8271 43.6423 37.1905 43.1834 36.5559C42.6318 35.6488 41.438 35.1932 40.7012 34.4691V34.4651Z" fill="black"/>
</svg>
