<svg width="155" height="155" viewBox="0 0 155 155" fill="none" xmlns="http://www.w3.org/2000/svg">
<g clip-path="url(#clip0_221_310)">
<path d="M77.5296 150.239C75.5829 150.239 73.6496 149.729 71.9429 148.746L54.1603 138.218C51.5043 136.733 52.8003 136.207 53.6763 135.905C57.2176 134.665 57.9363 134.385 61.7163 132.238C62.1136 132.011 62.6336 132.091 63.0403 132.331L76.7016 140.438C77.1949 140.705 77.8949 140.705 78.3522 140.438L131.619 109.691C132.112 109.411 132.432 108.838 132.432 108.251V46.7849C132.432 46.1716 132.112 45.6249 131.608 45.3183L78.3629 14.5983C77.8696 14.305 77.2162 14.305 76.7229 14.5983L23.4883 45.3183C22.9723 45.6116 22.6443 46.1849 22.6443 46.7716V108.238C22.6443 108.825 22.9643 109.385 23.471 109.665L38.0576 118.091C45.9776 122.051 50.8176 117.385 50.8176 112.691V52.0249C50.8176 51.1582 51.4976 50.4916 52.3643 50.4916H59.1109C59.9509 50.4916 60.6443 51.1582 60.6443 52.0249V112.718C60.6443 123.278 54.8843 129.345 44.871 129.345C41.791 129.345 39.3643 129.345 32.591 126.011L18.6177 117.958C15.1643 115.958 13.031 112.225 13.031 108.238V46.7716C13.031 42.7716 15.1643 39.0383 18.6177 37.0649L71.9376 6.305C75.3109 4.39833 79.7909 4.39833 83.1375 6.305L136.391 37.0783C139.831 39.0649 141.977 42.7849 141.977 46.7849V108.251C141.977 112.238 139.831 115.958 136.391 117.958L83.1375 148.718C81.4309 149.705 79.4976 150.211 77.5242 150.211" fill="black"/>
<path d="M93.9828 107.885C70.6762 107.885 65.7896 97.1864 65.7896 88.2131C65.7896 87.3598 66.4775 86.6798 67.3322 86.6798H74.2122C74.9722 86.6798 75.6122 87.2331 75.7322 87.9838C76.7722 94.9944 79.8655 98.5304 93.9588 98.5304C105.185 98.5304 109.959 95.9944 109.959 90.0411C109.959 86.6145 108.599 84.0678 91.1588 82.3611C76.5722 80.9211 67.5589 77.7078 67.5589 66.0412C67.5589 55.2945 76.6255 48.8945 91.8122 48.8945C108.865 48.8945 117.319 54.8145 118.385 67.5345C118.425 67.9745 118.265 68.4012 117.972 68.7212C117.679 69.0278 117.265 69.2145 116.839 69.2145H109.919C109.199 69.2145 108.572 68.7078 108.425 68.0145C106.759 60.6412 102.732 58.2812 91.7855 58.2812C79.5322 58.2812 78.1055 62.5478 78.1055 65.7478C78.1055 69.6278 79.7855 70.7611 96.3188 72.9478C112.692 75.1211 120.465 78.1878 120.465 89.6944C120.465 101.294 110.785 107.948 93.9055 107.948" fill="black"/>
</g>
<defs>
<clipPath id="clip0_221_310">
<rect width="129" height="145" fill="white" transform="translate(13 5)"/>
</clipPath>
</defs>
</svg>
