<svg width="155" height="155" viewBox="0 0 155 155" fill="none" xmlns="http://www.w3.org/2000/svg">
<path d="M108.205 107.727C109.035 100.81 108.786 99.796 113.938 100.916L115.246 101.031C119.208 101.212 124.39 100.394 127.435 98.9797C133.989 95.9387 137.875 90.8613 131.412 92.1955C116.671 95.2365 115.658 90.245 115.658 90.245C131.224 67.1492 137.731 37.8314 132.114 30.6549C116.795 11.0803 90.2771 20.3367 89.8334 20.577L89.6921 20.6031C86.7795 19.9988 83.5198 19.6377 79.8581 19.5785C73.1872 19.4689 68.1254 21.3273 64.2857 24.2397C64.2857 24.2397 16.9799 4.7503 19.1807 48.7495C19.6487 58.1094 32.5971 119.574 48.0405 101.009C53.6849 94.2204 59.1398 88.4803 59.1398 88.4803C61.8485 90.2799 65.0914 91.1978 68.4926 90.8681L68.7555 90.6439C68.6732 91.4868 68.7095 92.3112 68.8607 93.2872C64.883 97.7324 66.0518 98.5128 58.0979 100.15C50.0507 101.809 54.7784 104.761 57.8643 105.533C61.6064 106.469 70.2631 107.794 76.1139 99.6057L75.8809 100.54C77.4416 101.789 77.3361 109.514 77.5574 115.034C77.7789 120.554 78.1485 125.704 79.2737 128.741C80.3988 131.778 81.7265 139.6 92.1798 137.36C100.916 135.488 107.596 132.793 108.205 107.727Z" fill="black" stroke="black" stroke-width="10"/>
<path d="M131.414 92.1948C116.671 95.2358 115.658 90.2444 115.658 90.2444C131.224 67.1471 137.731 37.8287 132.115 30.6531C116.796 11.0796 90.2771 20.3366 89.8345 20.577L89.6921 20.6025C86.7795 19.9978 83.5198 19.6376 79.8563 19.5778C73.1854 19.4685 68.1254 21.3267 64.2857 24.2384C64.2857 24.2384 16.979 4.74993 19.1792 48.7489C19.6472 58.1094 32.5953 119.574 48.0393 101.009C53.684 94.2203 59.138 88.4803 59.138 88.4803C61.847 90.2798 65.0899 91.1978 68.4897 90.868L68.7537 90.6438C68.6717 91.4867 68.7092 92.3112 68.8595 93.2871C64.8809 97.7323 66.05 98.5128 58.0967 100.15C50.0489 101.808 54.7766 104.761 57.8634 105.533C61.6055 106.469 70.2628 107.794 76.1124 99.6057L75.8791 100.54C77.438 101.789 78.5327 108.662 78.3492 114.892C78.1658 121.123 78.0433 125.4 79.2716 128.741C80.4999 132.082 81.7241 139.6 92.1795 137.36C100.916 135.487 105.443 130.636 106.073 122.543C106.52 116.789 107.531 117.64 107.595 112.496L108.407 110.061C109.342 102.262 108.555 99.7455 113.938 100.916L115.246 101.031C119.207 101.211 124.392 100.393 127.435 98.9791C133.988 95.9381 137.874 90.8607 131.413 92.1948H131.414Z" fill="black"/>
<path d="M76.7454 96.6655C76.3394 111.178 76.8474 125.791 78.2673 129.343C79.6882 132.894 82.7289 139.802 93.1852 137.562C101.921 135.689 105.099 132.065 106.479 124.065C107.494 118.18 109.453 101.834 109.704 98.485" stroke="white" stroke-width="4" stroke-linecap="round" stroke-linejoin="round"/>
<path d="M64.2126 23.9143C64.2126 23.9143 16.8737 4.5662 19.0744 48.5652C19.5425 57.9256 32.4914 119.393 47.9351 100.826C53.5787 94.0369 58.6827 88.7119 58.6827 88.7119" stroke="white" stroke-width="4" stroke-linecap="round" stroke-linejoin="round"/>
<path d="M89.7825 20.383C88.1439 20.8967 116.115 10.1576 132.012 30.47C137.627 37.6458 131.12 66.9643 115.554 90.0621" stroke="white" stroke-width="4" stroke-linecap="round" stroke-linejoin="round"/>
<path d="M115.554 90.0622C115.554 90.0622 116.569 95.0551 131.311 92.0121C137.771 90.678 133.884 95.7559 127.332 98.7984C121.956 101.294 109.901 101.933 109.705 98.4851C109.198 89.5886 116.049 92.2914 115.554 90.0622ZM115.554 90.0622C115.107 88.0546 112.044 86.0842 110.017 81.1707C108.248 76.882 85.7509 43.9935 116.256 48.878C117.373 48.6468 108.3 19.8623 79.7515 19.3942C51.2097 18.9262 52.1461 54.4943 52.1461 54.4943" stroke="white" stroke-width="4" stroke-linecap="round" stroke-linejoin="bevel"/>
<path d="M68.7553 93.1043C64.7762 97.5492 65.9464 98.3297 57.9925 99.9674C49.9447 101.626 54.673 104.578 57.7589 105.35C61.501 106.286 70.1583 107.612 76.0079 99.4211C77.7893 96.9273 75.9974 92.9481 73.5504 91.9337C72.3682 91.444 70.7873 90.8303 68.7553 93.1043Z" stroke="white" stroke-width="4" stroke-linecap="round" stroke-linejoin="round"/>
<path d="M68.4948 93.0265C68.0938 90.4131 69.3535 87.3032 70.7034 83.6649C72.7321 78.206 77.413 72.7461 73.6685 55.4297C70.8775 42.5255 52.1575 52.7442 52.1458 54.4939C52.1343 56.243 52.9925 63.3625 51.833 71.6532C50.3201 82.4718 58.7169 91.6215 68.386 90.6854" stroke="white" stroke-width="4" stroke-linecap="round" stroke-linejoin="round"/>
<path d="M64.0404 54.2316C63.956 54.8292 65.1345 56.4238 66.6711 56.6369C68.2051 56.8509 69.5181 55.6047 69.6013 55.0077C69.6846 54.4101 68.5076 53.7518 66.9703 53.5379C65.4355 53.3236 64.1219 53.6354 64.0407 54.2316H64.0404Z" fill="white" stroke="white" stroke-width="5.54"/>
<path d="M110.765 53.0137C110.848 53.6113 109.671 55.2059 108.134 55.419C106.599 55.633 105.286 54.3868 105.202 53.7898C105.121 53.1922 106.298 52.5339 107.834 52.32C109.369 52.106 110.682 52.4176 110.765 53.014V53.0137Z" fill="white" stroke="white" stroke-width="2.77"/>
<path d="M116.256 48.8779C116.509 53.5655 115.246 56.7583 115.087 61.7483C114.851 69.0015 118.545 77.3034 112.979 85.6155" stroke="white" stroke-width="4" stroke-linecap="round" stroke-linejoin="round"/>
</svg>
