<svg width="155" height="155" viewBox="0 0 155 155" fill="none" xmlns="http://www.w3.org/2000/svg">
<path d="M30.0147 137H88.6967C88.6967 137 75.681 107.195 78.9895 79.8361C82.2992 52.4777 103.698 40.0205 115.831 38.6861C127.963 37.3507 134.582 44.9142 134.582 44.9142L137.23 40.9101C137.23 40.9101 119.802 23.1155 97.7411 25.1181C75.6799 27.1196 60.4586 41.7996 50.9731 59.5942C41.4864 77.3899 35.9712 89.8448 32.2215 108.529C28.4719 127.213 30.0147 137 30.0147 137Z" fill="black"/>
<path d="M18.3234 107.194L29.7951 108.084L27.8089 119.649L17 118.315L18.3234 107.194Z" fill="black"/>
<path d="M36.4133 82.7273L39.5024 74.053L29.354 70.0488L26.0455 79.3903L36.4133 82.7273Z" fill="black"/>
<path d="M50.7523 52.9201L56.7087 45.8036L48.9878 40.6875L42.8108 47.5816L50.7523 52.9201Z" fill="black"/>
<path d="M66.4148 25.3394L71.7095 31.7898L78.9894 27.5633L73.6946 21.5576L66.4148 25.3394Z" fill="black"/>
<path d="M92.2267 18L93.5501 24.4516L102.596 24.2292L101.712 18.4459L92.2267 18Z" fill="black"/>
<path d="M122.891 24.8945L122.671 28.8976L128.848 32.2334L130.171 30.2319L122.891 24.8945Z" fill="black"/>
<path d="M121.567 42.0234V45.3593L127.523 46.0265V43.3566L121.567 42.0234Z" fill="black"/>
<path d="M102.596 44.9133L105.463 50.2507L109.655 46.9149L108.773 43.3555L102.596 44.9133Z" fill="black"/>
<path d="M93.549 51.8105L97.9615 58.4833L95.3136 63.1535L88.916 56.0371L93.549 51.8105Z" fill="black"/>
<path d="M84.7264 70.2715L81.8579 76.0548L89.3583 82.5063L91.1228 75.1652L84.7264 70.2715Z" fill="black"/>
<path d="M81.6373 90.5117L81.1962 98.2965L90.4611 102.301L90.02 94.9595L81.6373 90.5117Z" fill="black"/>
<path d="M84.2841 118.094L86.4909 126.102L98.182 126.769L93.9901 118.094H84.2841Z" fill="black"/>
</svg>
