<svg width="155" height="155" viewBox="0 0 155 155" fill="none" xmlns="http://www.w3.org/2000/svg">
<mask id="mask0_220_268" style="mask-type:luminance" maskUnits="userSpaceOnUse" x="7" y="18" width="140" height="120">
<path d="M147 18H7V137.978H147V18Z" fill="white"/>
</mask>
<g mask="url(#mask0_220_268)">
<path d="M141.493 110.499C134.035 114.4 95.3295 130.32 86.9918 134.689C78.6541 139.059 74.1889 138.935 67.6679 135.818C61.147 132.701 20.0993 116.006 12.6604 112.449C8.91231 110.69 7 109.189 7 107.783V93.6225C7 93.6225 60.6211 81.9861 69.2743 78.8499C77.9275 75.7138 80.9202 75.6373 88.273 78.3336C95.6259 81.03 139.705 88.9852 146.981 91.6242V105.584C146.981 107.037 145.308 108.452 141.493 110.489V110.499Z" fill="black"/>
<path d="M141.492 96.4052C134.034 100.287 95.3292 116.207 86.9916 120.5C78.6539 124.793 74.1887 124.755 67.6677 121.648C61.1468 118.54 20.0991 101.846 12.6602 98.3175C5.22133 94.7893 5.07791 92.3224 12.3734 89.4731C19.6688 86.6237 60.6209 70.589 69.2741 67.4337C77.9272 64.2784 80.92 64.2115 88.2728 66.9174C95.6256 69.6233 134.168 84.9313 141.406 87.599C148.644 90.2667 148.979 92.4563 141.492 96.3287V96.4052Z" fill="#2D3031"/>
<path d="M141.493 87.4365C134.035 91.328 95.3295 107.238 86.9918 111.532C78.6541 115.825 74.2272 115.786 67.7062 112.66C61.1852 109.533 20.0993 92.9344 12.6604 89.3871C8.91231 87.6086 7 86.117 7 84.7019V70.5891C7 70.5891 60.6211 58.9144 69.2743 55.7783C77.9275 52.6421 80.9202 52.556 88.273 55.2906C95.6259 58.0252 139.705 65.9039 146.981 68.562V82.5219C146.981 83.9752 145.308 85.4286 141.493 87.4365Z" fill="black"/>
<path d="M141.493 73.2752C134.035 77.1764 95.3295 93.0867 86.9919 97.3799C78.6542 101.673 74.189 101.644 67.668 98.5273C61.147 95.4102 20.0994 78.7827 12.6605 75.2258C5.2216 71.6689 5.08774 69.2498 12.3736 66.4005C19.6595 63.5512 60.6211 47.4782 69.2743 44.409C77.9275 41.3397 80.9203 41.1485 88.2731 43.8162C95.6259 46.4838 134.168 61.9257 141.407 64.5169C148.645 67.1081 148.979 69.3837 141.493 73.2466V73.2752Z" fill="#2D3031"/>
<path d="M141.493 63.5033C134.035 67.4044 95.3295 83.3244 86.9918 87.608C78.6541 91.8915 74.2272 91.8628 67.7062 88.7553C61.1852 85.6478 20.0993 69.0012 12.6604 65.4539C8.91231 63.6946 7 62.1934 7 60.7783V46.6176C7 46.6176 60.6211 34.9813 69.2743 31.8546C77.9275 28.728 80.9202 28.6324 88.273 31.3288C95.6259 34.0251 139.685 41.9803 146.962 44.6384V58.5983C146.981 60.0707 145.308 61.505 141.493 63.5033Z" fill="black"/>
<path d="M141.493 49.3623C134.035 53.1869 95.3295 69.2025 86.9918 73.4574C78.6542 77.7123 74.1889 77.7027 67.668 74.6048C61.147 71.5068 20.0993 54.8411 12.6605 51.3033C5.22158 47.7655 5.07815 45.3082 12.3736 42.4589C19.6691 39.6095 60.6211 23.5462 69.2743 20.4291C77.9275 17.312 80.9202 17.2164 88.2731 19.9128C95.6259 22.6091 134.168 37.9363 141.407 40.5944C148.645 43.2525 148.979 45.4612 141.493 49.3336V49.3623Z" fill="#2D3031"/>
</g>
<path d="M79.1895 29.2539L88.426 26.2229L85.9209 32.2084L95.3198 35.7271L83.2054 36.9892L80.4803 43.5293L76.1012 36.2338L62.0935 34.9717L72.5538 31.2044L69.4081 25.4102L79.1895 29.2539Z" fill="white"/>
<path d="M79.7728 67.4333L57.1311 58.0343L89.5638 53.0527L79.7728 67.4333Z" fill="white"/>
<path d="M48.3822 39.3604C57.9438 39.3604 65.7173 42.3722 65.7173 46.0534C65.7173 49.7346 57.9246 52.7465 48.3822 52.7465C38.8398 52.7465 31.0376 49.7346 31.0376 46.0534C31.0376 42.3722 38.8111 39.3604 48.3822 39.3604Z" fill="white"/>
<path d="M109.672 37.5151L128.862 45.0974L109.691 52.6797L109.672 37.5151Z" fill="black"/>
<path d="M109.672 37.5151L109.691 52.6797L107.606 53.4925L88.426 45.9102L109.672 37.5151Z" fill="#423D3C"/>
</svg>
